<svg xmlns="http://www.w3.org/2000/svg" viewBox="0 0 512 512" width="512" height="512">
  <defs>
    <linearGradient id="grad" x1="0%" y1="0%" x2="100%" y2="100%">
      <stop offset="0%" stop-color="#0f172a" />
      <stop offset="100%" stop-color="#1e293b" />
    </linearGradient>
    <linearGradient id="accentGrad" x1="0%" y1="0%" x2="100%" y2="100%">
      <stop offset="0%" stop-color="#10b981" />
      <stop offset="100%" stop-color="#059669" />
    </linearGradient>
  </defs>
  <rect width="512" height="512" rx="128" fill="url(#grad)" />
  <rect x="72" y="72" width="368" height="368" rx="80" fill="#ffffff" fill-opacity="0.05" stroke="#ffffff" stroke-opacity="0.1" stroke-width="4" />
  <!-- Minimalist habit spreadsheet grid aesthetic -->
  <rect x="120" y="140" width="80" height="24" rx="8" fill="#4f46e5" fill-opacity="0.7" />
  <rect x="220" y="140" width="40" height="24" rx="8" fill="#10b981" fill-opacity="0.9" />
  <rect x="280" y="140" width="40" height="24" rx="8" fill="#10b981" fill-opacity="0.9" />
  <rect x="340" y="140" width="40" height="24" rx="8" fill="#f59e0b" fill-opacity="0.9" />
  
  <rect x="120" y="180" width="80" height="24" rx="8" fill="#0284c7" fill-opacity="0.7" />
  <rect x="220" y="180" width="40" height="24" rx="8" fill="#10b981" fill-opacity="0.9" />
  <rect x="280" y="180" width="40" height="24" rx="8" fill="#f43f5e" fill-opacity="0.8" />
  <rect x="340" y="180" width="40" height="24" rx="8" fill="#10b981" fill-opacity="0.9" />

  <!-- Prominent Checkmark Emblem -->
  <circle cx="256" cy="320" r="84" fill="url(#accentGrad)" />
  <path d="M216 320 L244 348 L296 292" fill="none" stroke="#ffffff" stroke-width="16" stroke-linecap="round" stroke-linejoin="round" />
</svg>
